<?xml version="1.0" encoding="UTF-8" standalone="no"?>
<svg
   xmlns:dc="http://purl.org/dc/elements/1.1/"
   xmlns:cc="http://creativecommons.org/ns#"
   xmlns:rdf="http://www.w3.org/1999/02/22-rdf-syntax-ns#"
   xmlns:svg="http://www.w3.org/2000/svg"
   xmlns="http://www.w3.org/2000/svg"
   viewBox="0 0 696.164 168.18266"
   height="168.18266"
   width="696.164"
   xml:space="preserve"
   id="svg2"
   version="1.1"><metadata
     id="metadata8"><rdf:RDF><cc:Work
         rdf:about=""><dc:format>image/svg+xml</dc:format><dc:type
           rdf:resource="http://purl.org/dc/dcmitype/StillImage" /></cc:Work></rdf:RDF></metadata><defs
     id="defs6"><clipPath
       id="clipPath18"
       clipPathUnits="userSpaceOnUse"><path
         id="path16"
         d="M 0,126.137 H 522.123 V 0 H 0 Z" /></clipPath><clipPath
       id="clipPath26"
       clipPathUnits="userSpaceOnUse"><path
         id="path24"
         d="M 385.602,126.143 H 522.119 V 0.0065918 H 385.602 Z" /></clipPath></defs><g
     transform="matrix(1.3333333,0,0,-1.3333333,0,168.18267)"
     id="g10"><g
       id="g12"><g
         clip-path="url(#clipPath18)"
         id="g14"><g
           id="g20"><g
             id="g22" /><g
             id="g34"><g
               id="g32"
               clip-path="url(#clipPath26)"><g
                 id="g30"
                 transform="translate(500.7456,69.3578)"><path
                   id="path28"
                   style="fill:#cc1e25;fill-opacity:1;fill-rule:nonzero;stroke:none"
                   d="m 0,0 c 0,0 4.895,-1.616 7.237,-2.27 -1.243,3.739 -9.668,33.969 -12.053,38.462 -2.833,5.349 -6.715,11.411 -11.72,12.415 1.327,-0.955 0.654,0.143 4.086,-3.184 3.431,-3.327 7.453,-21.293 7.453,-21.293 z m 13.933,-10.256 7.44,-19.093 -10.408,2.463 10.232,-24.669 -4.82,-1.29 -8.036,-6.295 -28.72,11.64 c -2.311,-5.198 -4.871,-9.581 -7.505,-10.951 0.501,1.223 1.108,2.406 1.568,3.603 -4.563,1.441 -10.968,-6.238 -13.394,-10.502 -0.383,4.895 1.828,11.133 -0.107,15.117 4.538,3.104 9.196,4.048 13.645,5.741 l -5.813,10.672 c 0,0 -35.059,-37.426 -36.847,-35.456 -0.172,0.174 -46.311,1.284 -46.311,1.284 l 16.34,49.631 c 0,0 79.835,16.092 80.416,17.368 0.581,1.276 -2.915,2.87 -6.822,6.959 -3.894,4.09 -4.452,12.984 -4.452,12.984 0,0 6.902,-4.668 11.264,-8.587 3.155,-2.832 4.957,-6.668 5.705,-8.566 0.535,0.25 0.373,-0.135 1.639,-0.09 0.774,0.049 1.131,-0.366 1.76,0.07 -0.589,1.749 -1.414,4.194 -1.911,5.676 -0.066,0.201 -0.051,0.334 0.043,0.467 -3.184,6.75 -6.589,18.794 -8.921,21.101 -3.233,3.193 -7.445,7.604 -11.39,9.854 h -0.013 c -2.095,-9.091 11.842,-20.88 11.842,-20.88 0,0 -4.187,1.932 -8.292,4.223 -2.803,1.577 -5.578,3.314 -6.929,4.708 -3.324,3.46 -4.771,8.787 -6.276,13.395 0.029,0.399 -23.676,3.864 -27.615,-6.002 -13.754,-34.478 20.893,-20.696 22.709,-22.293 0.942,-0.832 -17.878,-7.195 -17.878,-7.195 0,0 -13.438,-2.383 -15.946,1.498 -2.509,3.868 -2.423,20.036 -0.832,27.29 1.604,7.242 10.754,16.996 14.107,20.374 3.353,3.352 16.147,2.993 22.993,2.058 6.832,-0.935 13.433,-2.548 13.73,-1.91 0.284,0.638 15.13,4.519 23.269,1.523 C 1.55,52.641 6.816,39.893 8.407,34.098 9.984,28.29 13.933,-10.256 13.933,-10.256" /></g></g></g></g><g
           transform="translate(77.56,38.9019)"
           id="g36"><path
             id="path38"
             style="fill:#cc1e25;fill-opacity:1;fill-rule:nonzero;stroke:none"
             d="m 0,0 -8.811,-24.235 -21.697,-13.544 h -39.456 c 0.541,0 -1.99,6.419 -7.596,19.254 l 24.273,66.015 20.609,16.401 H 6.511 L 17.223,47.214 8.669,22.808 H -21.21 l 4.968,12.36 h -11.01 l -17.63,-45.551 12.204,0.135 3.39,10.248 z" /></g><g
           transform="translate(136.8093,74.0702)"
           id="g40"><path
             id="path42"
             style="fill:#cc1e25;fill-opacity:1;fill-rule:nonzero;stroke:none"
             d="m 0,0 h -10.578 l -6.915,-18.106 H -5.83 Z M 33.903,12.047 2.579,-72.947 H -26.92 l 14.353,37.954 h -11.536 l -15.741,-37.954 h -27.822 l 31.054,85.269 20.611,16.4 h 39.192 z" /></g><g
           transform="translate(210.1344,58.9763)"
           id="g44"><path
             id="path46"
             style="fill:#cc1e25;fill-opacity:1;fill-rule:nonzero;stroke:none"
             d="m 0,0 h -11.66 l 6.913,18.109 H 5.83 Z m 28.508,43.816 h -53.563 l -37.286,-101.67 h 27.794 l 15.322,36.738 H 4.911 L 26.61,-7.56 39.218,27.141 Z" /></g><g
           transform="translate(282.6367,58.9763)"
           id="g48"><path
             id="path50"
             style="fill:#cc1e25;fill-opacity:1;fill-rule:nonzero;stroke:none"
             d="m 0,0 h -12.36 l 6.917,18.109 H 5.833 Z M 41.569,27.141 30.857,43.816 h -53.566 l -37.289,-101.67 h 27.796 l 15.323,36.612 9.085,0.135 -15.319,-36.747 H 10.245 L 24.617,-19.353 17.7,-7.291 32.209,1.526 Z" /></g><g
           transform="translate(368.5438,74.0702)"
           id="g52"><path
             id="path54"
             style="fill:#cc1e25;fill-opacity:1;fill-rule:nonzero;stroke:none"
             d="M 0,0 H -10.575 L -17.49,-18.106 H -5.83 Z M 33.9,12.047 2.577,-72.947 H -26.92 l 14.353,37.954 h -11.535 l -15.744,-37.954 h -27.815 l 31.054,85.269 20.609,16.4 h 39.191 z" /></g></g></g></g></svg>